<svg xmlns="http://www.w3.org/2000/svg" width="326" height="130" viewBox="0 0 326 130"><path d="M36.086 72.03c-.2-4.367-.452-9.638-.4-14.206h-.152c-1.104 4.116-2.51 8.685-4.016 12.952l-4.97 14.66h-4.72l-4.517-14.46c-1.304-4.316-2.51-8.935-3.413-13.152h-.1c-.15 4.417-.352 9.79-.603 14.408l-.753 13.604H6.67L8.928 52h8.132l4.418 13.605c1.205 3.966 2.26 7.982 3.112 11.747h.15c.904-3.665 2.06-7.832 3.364-11.797L32.774 52h8.03l1.96 33.836h-6.025l-.654-13.805zM67.96 79.962c0 2.21.1 4.368.402 5.874H62.79l-.452-2.71h-.15c-1.457 1.907-4.017 3.262-7.23 3.262-4.92 0-7.68-3.564-7.68-7.28 0-6.124 5.47-9.286 14.507-9.236v-.402c0-1.606-.653-4.267-4.97-4.267-2.41 0-4.92.753-6.576 1.807l-1.206-4.016c1.808-1.104 4.97-2.16 8.835-2.16 7.83 0 10.09 4.97 10.09 10.343v8.785zm-6.023-6.074c-4.367-.05-8.534.853-8.534 4.568 0 2.41 1.556 3.514 3.514 3.514 2.51 0 4.267-1.606 4.87-3.363.15-.452.15-.904.15-1.355v-3.364zM74.234 80.113c1.355.854 4.016 1.808 6.225 1.808 2.71 0 3.915-1.154 3.915-2.76 0-1.657-1.004-2.46-4.016-3.564-4.77-1.606-6.728-4.217-6.728-7.128 0-4.317 3.564-7.63 9.237-7.63 2.71 0 5.07.652 6.525 1.455L88.14 66.61c-1.004-.603-3.012-1.406-5.17-1.406-2.21 0-3.415 1.104-3.415 2.61 0 1.557 1.154 2.26 4.267 3.414 4.468 1.556 6.476 3.815 6.526 7.43 0 4.468-3.464 7.68-9.94 7.68-2.96 0-5.622-.702-7.43-1.706l1.256-4.52zM102.495 55.113v6.275h5.874v4.62h-5.875V76.8c0 3.012.803 4.518 3.163 4.518 1.104 0 1.707-.05 2.41-.25l.1 4.667c-.903.352-2.56.653-4.467.653-2.31 0-4.166-.753-5.32-2.008-1.355-1.405-1.958-3.665-1.958-6.877V66.006h-3.464v-4.62h3.464V56.82l6.073-1.707zM117.102 75.344c.15 4.418 3.564 6.326 7.53 6.326 2.86 0 4.87-.452 6.777-1.104l.902 4.217c-2.108.904-5.02 1.556-8.534 1.556-7.932 0-12.6-4.87-12.6-12.35 0-6.778 4.116-13.154 11.947-13.154 7.932 0 10.542 6.526 10.542 11.898 0 1.155-.1 2.058-.2 2.61H117.1zm10.743-4.318c.05-2.26-.954-5.974-5.07-5.974-3.815 0-5.422 3.464-5.673 5.974h10.743zM138.636 69.27c0-3.313-.05-5.723-.2-7.882h5.32l.25 4.62h.15c1.206-3.415 4.067-5.172 6.728-5.172.603 0 .954.05 1.456.15v5.774c-.552-.1-1.104-.15-1.857-.15-2.912 0-4.97 1.857-5.522 4.668-.1.552-.15 1.205-.15 1.857v12.7h-6.174V69.27z"/><path fill="#676767" d="M156.757 52h6.175v28.665h13.906v5.17h-20.08V52zM200.23 79.962c0 2.21.1 4.368.4 5.874h-5.572l-.452-2.71h-.15c-1.457 1.907-4.017 3.262-7.23 3.262-4.92 0-7.68-3.564-7.68-7.28 0-6.124 5.47-9.286 14.507-9.236v-.402c0-1.606-.653-4.267-4.97-4.267-2.41 0-4.92.753-6.576 1.807l-1.205-4.016c1.808-1.104 4.97-2.16 8.835-2.16 7.832 0 10.09 4.97 10.09 10.343v8.785zm-6.025-6.074c-4.367-.05-8.534.853-8.534 4.568 0 2.41 1.557 3.514 3.515 3.514 2.51 0 4.267-1.606 4.87-3.363.15-.452.15-.904.15-1.355v-3.364zM206.753 50.193h6.175v14.56h.1c1.506-2.36 4.167-3.917 7.832-3.917 5.974 0 10.24 4.97 10.19 12.4 0 8.785-5.57 13.153-11.094 13.153-3.163 0-5.974-1.206-7.73-4.218h-.1l-.302 3.665h-5.27c.1-1.657.2-4.368.2-6.877V50.193zm6.175 25.553c0 .502.05 1.004.15 1.456.653 2.51 2.81 4.317 5.472 4.317 3.865 0 6.225-3.063 6.225-8.033 0-4.317-2.058-7.832-6.175-7.832-2.51 0-4.82 1.808-5.472 4.518-.1.452-.2 1.004-.2 1.606v3.966z"/><g fill="#676767"><path d="M55.62 95.455h1.718v11.73h5.62v1.424h-7.337V95.454zM71.43 106.345c0 .82.04 1.62.138 2.264h-1.542l-.136-1.19h-.06c-.526.74-1.54 1.404-2.888 1.404-1.913 0-2.888-1.347-2.888-2.713 0-2.282 2.03-3.53 5.68-3.512v-.195c0-.76-.216-2.186-2.148-2.167-.897 0-1.815.254-2.48.703l-.39-1.152c.782-.488 1.933-.82 3.124-.82 2.888 0 3.59 1.97 3.59 3.845v3.532zm-1.658-2.557c-1.874-.04-4 .292-4 2.127 0 1.132.74 1.64 1.6 1.64 1.25 0 2.05-.78 2.322-1.58.06-.196.078-.39.078-.547v-1.64zM74.205 94.752h1.698v5.933h.04c.604-1.054 1.697-1.718 3.22-1.718 2.36 0 4 1.952 4 4.8 0 3.377-2.147 5.056-4.255 5.056-1.366 0-2.46-.527-3.18-1.757h-.04l-.097 1.542h-1.463c.04-.644.078-1.6.078-2.44V94.753zm1.697 10.07c0 .215.02.43.078.625.312 1.19 1.327 2.01 2.576 2.01 1.815 0 2.87-1.464 2.87-3.63 0-1.893-.977-3.513-2.83-3.513-1.152 0-2.246.82-2.597 2.108-.06.215-.1.45-.1.722v1.678zM93.86 103.808c0 3.493-2.44 5.016-4.704 5.016-2.537 0-4.528-1.874-4.528-4.86 0-3.142 2.088-4.996 4.684-4.996 2.713 0 4.547 1.97 4.547 4.84zm-7.475.097c0 2.068 1.17 3.63 2.85 3.63 1.64 0 2.868-1.542 2.868-3.67 0-1.6-.8-3.61-2.83-3.61-2.01 0-2.888 1.874-2.888 3.65zM96.03 102.11c0-1.113-.02-2.07-.08-2.948h1.503l.078 1.874h.06c.43-1.27 1.483-2.07 2.635-2.07.176 0 .312.02.468.04v1.62c-.175-.04-.35-.04-.585-.04-1.21 0-2.07.898-2.303 2.187-.04.234-.06.527-.06.8v5.035H96.03v-6.5zM108.95 106.345c0 .82.04 1.62.137 2.264h-1.542l-.136-1.19h-.06c-.527.74-1.542 1.404-2.89 1.404-1.912 0-2.887-1.347-2.887-2.713 0-2.282 2.03-3.53 5.68-3.512v-.195c0-.76-.216-2.186-2.148-2.167-.897 0-1.815.254-2.48.703l-.39-1.152c.782-.488 1.933-.82 3.124-.82 2.887 0 3.59 1.97 3.59 3.845v3.532zm-1.66-2.557c-1.873-.04-4 .292-4 2.127 0 1.132.742 1.64 1.6 1.64 1.25 0 2.05-.78 2.323-1.58.06-.196.078-.39.078-.547v-1.64zM113.714 96.9v2.263h2.46v1.308h-2.46v5.095c0 1.17.332 1.834 1.288 1.834.47 0 .742-.04.996-.118l.078 1.308c-.332.117-.86.234-1.522.234-.8 0-1.444-.273-1.854-.722-.468-.527-.664-1.366-.664-2.48v-5.15h-1.464v-1.31h1.464v-1.755l1.678-.508zM126.538 103.808c0 3.493-2.44 5.016-4.703 5.016-2.537 0-4.528-1.874-4.528-4.86 0-3.142 2.088-4.996 4.684-4.996 2.713 0 4.548 1.97 4.548 4.84zm-7.475.097c0 2.068 1.17 3.63 2.85 3.63 1.64 0 2.868-1.542 2.868-3.67 0-1.6-.8-3.61-2.83-3.61-2.01 0-2.887 1.874-2.887 3.65zM128.707 102.11c0-1.113-.02-2.07-.078-2.948h1.5l.08 1.874h.058c.43-1.27 1.483-2.07 2.635-2.07.176 0 .312.02.468.04v1.62c-.174-.04-.35-.04-.584-.04-1.21 0-2.068.898-2.303 2.187-.04.234-.06.527-.06.8v5.035h-1.716v-6.5zM137.08 96.508c0 .585-.41 1.054-1.092 1.054-.625 0-1.034-.47-1.034-1.054s.43-1.073 1.073-1.073c.624 0 1.054.468 1.054 1.073zm-1.912 12.1v-9.446h1.717v9.446h-1.717zM148.284 103.808c0 3.493-2.44 5.016-4.703 5.016-2.536 0-4.527-1.874-4.527-4.86 0-3.142 2.088-4.996 4.684-4.996 2.713 0 4.547 1.97 4.547 4.84zm-7.474.097c0 2.068 1.17 3.63 2.85 3.63 1.64 0 2.868-1.542 2.868-3.67 0-1.6-.8-3.61-2.83-3.61-2.01 0-2.888 1.874-2.888 3.65zM163.822 108.2c-.605.31-1.874.624-3.474.624-3.708 0-6.48-2.342-6.48-6.675 0-4.138 2.792-6.91 6.87-6.91 1.62 0 2.675.352 3.124.585l-.43 1.386c-.624-.31-1.54-.545-2.634-.545-3.083 0-5.133 1.97-5.133 5.425 0 3.24 1.854 5.29 5.035 5.29 1.054 0 2.108-.216 2.79-.547l.332 1.366zM165.914 94.752h1.717v13.856h-1.716V94.752zM174.014 95.084l-2.38 2.79h-1.21l1.716-2.79h1.874zm-3.493 13.524v-9.446h1.718v9.446h-1.717zM175.088 101.72c0-.996-.02-1.777-.078-2.558h1.522l.098 1.562h.04c.467-.878 1.56-1.757 3.122-1.757 1.308 0 3.337.78 3.337 4.02v5.622h-1.718v-5.446c0-1.522-.566-2.79-2.186-2.79-1.112 0-1.99.8-2.303 1.755-.078.214-.117.507-.117.8v5.678h-1.717v-6.89zM187.835 96.508c0 .585-.41 1.054-1.093 1.054-.625 0-1.034-.47-1.034-1.054s.43-1.073 1.073-1.073c.625 0 1.055.468 1.055 1.073zm-1.913 12.1v-9.446h1.717v9.446h-1.718zM197.223 108.277c-.45.214-1.444.546-2.713.546-2.85 0-4.703-1.932-4.703-4.82 0-2.91 1.99-5.036 5.074-5.036 1.016 0 1.914.254 2.382.508l-.39 1.308c-.41-.215-1.055-.45-1.99-.45-2.168 0-3.338 1.62-3.338 3.573 0 2.186 1.405 3.532 3.28 3.532.975 0 1.62-.234 2.106-.45l.293 1.29zM207.667 103.808c0 3.493-2.44 5.016-4.703 5.016-2.537 0-4.528-1.874-4.528-4.86 0-3.142 2.088-4.996 4.684-4.996 2.712 0 4.547 1.97 4.547 4.84zm-7.475.097c0 2.068 1.17 3.63 2.85 3.63 1.64 0 2.868-1.542 2.868-3.67 0-1.6-.8-3.61-2.83-3.61-2.01 0-2.888 1.874-2.888 3.65zM220.824 102.44h-5.094v4.743h5.7v1.425h-7.417V95.455h7.123v1.425h-5.406v4.157h5.094v1.404zM223.344 106.872c.527.312 1.425.664 2.283.664 1.23 0 1.815-.605 1.815-1.405 0-.82-.488-1.248-1.737-1.716-1.717-.625-2.518-1.542-2.518-2.674 0-1.522 1.25-2.77 3.26-2.77.956 0 1.794.253 2.302.584l-.41 1.25c-.372-.235-1.055-.567-1.933-.567-1.015 0-1.56.585-1.56 1.288 0 .78.545 1.132 1.775 1.62 1.62.605 2.48 1.424 2.48 2.83 0 1.68-1.31 2.85-3.514 2.85-1.035 0-1.99-.273-2.654-.664l.41-1.288zM231.31 102.246c0-1.21-.04-2.186-.08-3.083h1.523l.098 1.62h.04c.683-1.152 1.815-1.815 3.356-1.815 2.304 0 4.02 1.932 4.02 4.782 0 3.396-2.087 5.074-4.31 5.074-1.25 0-2.343-.546-2.91-1.483h-.038v5.134h-1.698v-10.228zm1.696 2.518c0 .254.02.488.078.703.312 1.19 1.347 2.01 2.576 2.01 1.814 0 2.87-1.483 2.87-3.65 0-1.873-.997-3.493-2.812-3.493-1.17 0-2.284.82-2.596 2.108-.06.215-.117.468-.117.683v1.64zM243.372 104.198c.04 2.322 1.503 3.28 3.24 3.28 1.23 0 1.99-.216 2.614-.49l.312 1.23c-.604.273-1.66.605-3.16.605-2.91 0-4.647-1.932-4.647-4.782 0-2.848 1.68-5.073 4.432-5.073 3.103 0 3.903 2.693 3.903 4.43 0 .352-.02.605-.06.8h-6.633zm5.035-1.23c.02-1.073-.45-2.77-2.38-2.77-1.758 0-2.5 1.58-2.636 2.77h5.017zM258.928 108.277c-.448.214-1.443.546-2.712.546-2.85 0-4.704-1.932-4.704-4.82 0-2.91 1.99-5.036 5.074-5.036 1.016 0 1.913.254 2.38.508l-.39 1.308c-.41-.215-1.053-.45-1.99-.45-2.166 0-3.337 1.62-3.337 3.573 0 2.186 1.404 3.532 3.277 3.532.977 0 1.62-.234 2.108-.45l.293 1.29zM262.853 96.508c0 .585-.41 1.054-1.093 1.054-.624 0-1.034-.47-1.034-1.054s.43-1.073 1.073-1.073c.624 0 1.053.468 1.053 1.073zm-1.912 12.1v-9.446h1.718v9.446h-1.717zM272.145 106.345c0 .82.04 1.62.136 2.264h-1.54l-.137-1.19h-.06c-.526.74-1.54 1.404-2.888 1.404-1.912 0-2.89-1.347-2.89-2.713 0-2.282 2.03-3.53 5.68-3.512v-.195c0-.76-.214-2.186-2.145-2.167-.898 0-1.815.254-2.48.703l-.39-1.152c.78-.488 1.932-.82 3.122-.82 2.89 0 3.592 1.97 3.592 3.845v3.532zm-1.66-2.557c-1.873-.04-4 .292-4 2.127 0 1.132.74 1.64 1.6 1.64 1.25 0 2.05-.78 2.323-1.58.06-.196.078-.39.078-.547v-1.64zM274.917 94.752h1.717v13.856h-1.717V94.752zM281.437 96.508c0 .585-.41 1.054-1.093 1.054-.624 0-1.034-.47-1.034-1.054s.43-1.073 1.073-1.073c.625 0 1.054.468 1.054 1.073zm-1.912 12.1v-9.446h1.717v9.446h-1.717zM283.02 107.613l4.253-5.562c.43-.526.82-.975 1.25-1.482v-.04h-5.114v-1.365h7.182v1.073l-4.216 5.484c-.41.527-.78 1.015-1.21 1.483v.04h5.504v1.365h-7.65v-.995zM299.083 106.345c0 .82.04 1.62.136 2.264h-1.542l-.137-1.19h-.058c-.527.74-1.542 1.404-2.89 1.404-1.91 0-2.888-1.347-2.888-2.713 0-2.282 2.03-3.53 5.68-3.512v-.195c0-.76-.215-2.186-2.146-2.167-.898 0-1.815.254-2.48.703l-.39-1.152c.78-.488 1.932-.82 3.122-.82 2.89 0 3.592 1.97 3.592 3.845v3.532zm-1.66-2.557c-1.873-.04-4 .292-4 2.127 0 1.132.74 1.64 1.6 1.64 1.25 0 2.05-.78 2.323-1.58.06-.196.078-.39.078-.547v-1.64zM309.995 94.752v11.417c0 .838.04 1.794.078 2.438h-1.52l-.08-1.64h-.058c-.508 1.055-1.64 1.855-3.182 1.855-2.283 0-4.06-1.932-4.06-4.8-.02-3.143 1.952-5.056 4.235-5.056 1.464 0 2.42.683 2.85 1.425h.04v-5.64h1.697zm-1.698 8.255c0-.215-.02-.507-.078-.722-.255-1.073-1.19-1.97-2.48-1.97-1.776 0-2.83 1.56-2.83 3.63 0 1.912.956 3.493 2.79 3.493 1.152 0 2.206-.78 2.52-2.05.058-.233.077-.467.077-.74v-1.64zM321.415 103.808c0 3.493-2.44 5.016-4.703 5.016-2.537 0-4.528-1.874-4.528-4.86 0-3.142 2.09-4.996 4.685-4.996 2.71 0 4.545 1.97 4.545 4.84zm-7.475.097c0 2.068 1.17 3.63 2.85 3.63 1.64 0 2.868-1.542 2.868-3.67 0-1.6-.8-3.61-2.83-3.61-2.01 0-2.888 1.874-2.888 3.65z"/></g><path fill-rule="evenodd" clip-rule="evenodd" fill="#676767" d="M235.878 55.52c1.405 1.91 4.317 3.715 8.334 5.625 0 0 2.51-1.204 4.72-2.41 2.21-1.304 4.316-2.31 4.316-2.31-3.213-1.506-11.346-3.815-12.852-8.432-.1-.1-4.518 4.014-4.518 7.528z"/><path fill-rule="evenodd" clip-rule="evenodd" fill="#939" d="M269.514 14.56c0 3.615-2.51 5.924-5.12 8.334-3.816 3.715-14.86 8.734-19.68 11.345-6.425 3.413-8.937 8.232-8.937 9.738V55.12c.1.803.504.4.706-.202 1.002-2.81 4.216-8.432 16.463-14.155 5.32-2.51 19.076-8.634 19.076-17.27 0-4.014-.702-6.523-2.508-8.932zM269.514 42.47c0 3.515-2.51 6.024-5.12 8.333-3.816 3.715-14.86 8.735-19.68 11.346-6.425 3.512-8.937 8.23-8.937 9.635V83.13c.1.703.504.302.706-.202 1.002-2.91 4.216-8.532 16.463-14.254 5.32-2.51 19.076-8.734 19.076-17.168 0-4.116-.702-6.626-2.508-9.035z"/></svg>