<svg xmlns="http://www.w3.org/2000/svg" width="100" height="100"><defs><clipPath id="a" clipPathUnits="userSpaceOnUse"><path d="M-79.263 14.55H29.908v-37.415h-109.17Z"/></clipPath><clipPath id="b" clipPathUnits="userSpaceOnUse"><path d="M-92.075 3.222h109.17v-37.414h-109.17Z"/></clipPath><clipPath id="c" clipPathUnits="userSpaceOnUse"><path d="M-91.169 10.061H18.002v-37.414h-109.17Z"/></clipPath></defs><path d="M0 0c-.057-.169-.156-.287-.215-.198 0-.006-.004-.012-.004-.019.507-.688 1.557-1.339 3.006-2.028 0 0 .904.434 1.7.87.796.47 1.557.833 1.557.833C4.948-.03 2.273.743 1.523 2.23.585 1.309.186.52 0 0" clip-path="url(#a)" style="fill:#636466;fill-opacity:1;fill-rule:nonzero;stroke:none" transform="matrix(3.82662 0 0 -3.82662 26.475 58.617)"/><path d="M0 0c0 1.448-.254 2.353-.906 3.221 0-1.303-.904-2.136-1.844-3.004-1.377-1.339-5.358-3.149-7.096-4.09-2.316-1.23-3.222-2.966-3.222-3.509V-11.4a.3.3 0 0 1 .041-.125c.058-.09.158.028.214.197.186.52.585 1.309 1.524 2.231.89.874 2.264 1.868 4.411 2.872C-4.96-5.32 0-3.112 0 0" clip-path="url(#b)" style="fill:#8c0051;fill-opacity:1;fill-rule:nonzero;stroke:none" transform="matrix(3.82662 0 0 -3.82662 75.504 15.27)"/><path d="M0 0c0-1.268-.903-2.172-1.844-3.004-1.377-1.34-5.358-3.149-7.095-4.091-2.317-1.266-3.223-2.967-3.223-3.474v-4.089c.037-.254.183-.109.256.073.361 1.048 1.519 3.076 5.934 5.138C-4.054-8.542.906-6.299.906-3.258.906-1.774.652-.87 0 0" clip-path="url(#c)" style="fill:#8c0051;fill-opacity:1;fill-rule:evenodd;stroke:none" transform="matrix(3.82662 0 0 -3.82662 72.036 41.442)"/></svg>