<svg xmlns="http://www.w3.org/2000/svg" width="841.889" height="595.281" viewBox="0 0 841.889 595.281"><path d="M505.542 311.897c-30.78 29.932-119.788 70.386-158.627 91.454-51.787 28.294-72.047 66.324-72.047 77.656v91.408c.832 5.676 4.083 2.445 5.72-1.614 8.08-23.446 33.972-68.77 132.672-114.88 42.88-20.216 153.76-70.385 153.76-138.368 0-33.164-5.677-53.38-20.26-72.83 0 28.338-20.193 48.554-41.218 67.175z"/><path d="M546.76 19.81c0 29.123-20.193 47.767-41.22 67.153-30.78 29.953-119.788 70.407-158.627 91.454-51.786 27.487-72.045 66.303-72.045 78.44v89.817c.218 1.443.547 2.227.918 2.817 0 .153-.088.284-.088.437 11.33 15.392 34.8 29.93 67.197 45.322 0 0 20.217-9.715 38.01-19.452 17.794-10.48 34.8-18.6 34.8-18.6-24.495-11.462-84.292-28.73-101.06-62.002 19.89-19.54 50.606-41.765 98.613-64.208 42.88-20.238 153.762-69.576 153.762-139.155 0-32.377-5.677-52.594-20.26-72.023z"/></svg>