<svg xmlns="http://www.w3.org/2000/svg"><symbol id="U" viewBox="0 0 150 150"><path fill="#A7A9AB" d="M0 141.867v-9.529s-.073-.748 10.366-4.41c10.439-3.664 37.835-13.082 38.624-13.555.789-.475-1.052-8.17-1.052-8.17s-2.013-4.504-2.294-6.57c-.282-2.064-1.103-8.084-1.103-8.084s-4.314-.904-5.145-3.674S36.09 76.85 36.09 76.85s-1.118-5.85-1.837-8.452c-.72-2.602 1.837-4.41 1.837-4.41l-1.837-19.476s-.447-9.843 1.837-12.126 5.512-5.512 5.512-5.512-.082-2.318.735-4.41 11.216-9.119 16.09-11.161 8.452-3.171 16.583-3.171 11.57 1.114 16.564 3.171c4.992 2.057 13.719 8.143 16.09 11.161s4.867 7.042 6.246 9.921c2.285 2.284 1.838 12.126 1.838 12.126l-1.838 19.476s2.559 1.808 1.838 4.41c-.719 2.602-1.838 8.452-1.838 8.452s-2.477 8.256-3.307 11.025-5.145 3.674-5.145 3.674-.82 6.02-1.102 8.084c-.283 2.066-2.295 6.57-2.295 6.57s-1.84 7.695-1.053 8.17c.789.473 28.186 9.891 38.625 13.555 10.438 3.662 10.365 4.41 10.365 4.41v9.529H0zm81.961-48.519v-2.641c-.24-5.76 1.561-10.68 6.359-16.199 5.16-5.88 10.32-11.76 10.32-20.52 0-9.6-6.84-18.239-21.721-18.239-7.679 0-14.518 2.16-18.838 4.92l3.6 10.56c3-2.28 7.8-3.6 12-3.6 6.719.12 9.959 3.479 9.959 8.52 0 4.68-3.119 8.88-7.68 14.399-5.64 6.719-7.799 13.319-7.2 19.678l.119 3.121h13.082zM75 119.387c5.64 0 9.24-4.08 9.24-9.359-.119-5.521-3.719-9.361-9.119-9.361-5.28 0-9.12 3.84-9.12 9.361 0 5.279 3.72 9.359 8.999 9.359z"/></symbol><symbol id="equine" viewBox="0 0 150 150"><path fill="#A7A9AB" d="M6.05 122.295c1.063-.855.886-2.334.768-3.189.356-2.72 2.602-4.905 3.4-7.565 2.894-4.962 2.806-11.818 2.215-17.963.116-.325-.147-1.213-.296-1.802.061.087.12.087.208 0-.947-6.414-1.921-14.746-.74-21.807.682-5.673 2.603-11.817 7.742-15.01 1.182-.295 2.364-1.211 3.515-.856 3.251-1.124 6.797.679 9.574.856 6.293-1.625 13.415-2.748 20.21-1.476 1.655.562 3.634 1.005 5.526 1.27 4.432 1.269 9.633 1.565 14.36 1.15 4.402.15 7.269-3.368 10.875-5.079 2.363-1.005 1.623-4.229 4.135-5.319 2.008-2.72 4.078-5.792 6.592-8.216 1.475-.621 2.242-2.009 3.305-3.191 2.129-1.329 3.018-4.284 5.529-4.551 1.414-1.211 3.543-.915 4.578-2.776 1.15-1.244 2.748-.71 4.254-.858 3.191-1.626 6.471-2.42 9.779-3.396 1.887-1.305 3.795-2.632 4.803-4.69.068-.137.133-.28.191-.422.16-.153.314-.18.428-.162.186.028.172.238.207.597.031.303-.371 1.362-.104 1.81.295-.029.504-.326.74-.531.619-.345.365-1.063.361-1.615-.002-.161-.031-.369.082-.424.125-.061.234.1.332.164.293.194.514.327.73.81.326 1.567.443 3.576-.738 4.789 1.654.65 2.955 3.337 4.994 3.396.355.591.943.946 1.389 1.597-.238 3.9 3.365 6.116 5.939 8.39 1.389.504 2.865 1.065 3.84 2.364 0 1.096-.443 2.009-.326 3.074-.059.77 1.004 1.361.326 2.127-1.123.532-1.596 2.985-3.189 1.92-.799.591-2.244.649-3.104.208-1.094-3.722-5.791-1.537-8.184-3.516-1.42-.296-2.543.561-3.934.119-2.391-.149-4.193-1.628-6.172-2.779-1.391.175-2.721 1.065-3.516 2.245-3.25 6.884-5.439 14.155-5.525 22.427-.768 3.069.678 5.82-.414 8.742-.119 3.519-1.359 8.008-4.906 9.871-.441 3.664-1.123 8.124-2.334 11.702-1.711 2.982-1.508 7.029-1.803 10.34.295 2.48-1.686 4.312-2.039 6.677-.529 5.23-.295 11.023 2.898 15.339 1.092 1.178 1.771 2.716 2.008 4.133-.209.142-4.371.346-6.016-.196-.842-1.881-2.703-1.307-3.885-1.485-.447-.026-.818-.059-.854-.326-.678-1.183.381-2.125.326-3.309-.355-.709-1.332-1.45-2.219-2.127.295-4.521.709-8.331.826-13.179.414-1.15.15-2.393.236-3.401-1.711-2.214.09-4.427-.322-7.032-.83-4.668-.562-8.71-1.066-12.966-3.309.233-6.586.441-10.549.319-5.319-.558-10.458-1.266-15.422-3.097-2.481-.503-4.401-1.448-6.677-2.454-2.157-.477-3.961-2.097-5.85-1.804-1.035 1.833-2.365 1.773-4.049 2.866-.267-.088-.828.237-1.181.529-1.271 2.042-1.981 3.814-4.256 5.323-.532.267.09.854-.532.971-.739 1.714-2.244 3.164-3.278 4.789-.799 2.126-1.36 3.932-2.366 5.732-1.801 2.333-1.594 5.464-2.658 7.768-2.66 4.14-1.566 9.783-1.359 14.481.472 1.504.207 2.927 1.477 4.138 1.862 1.269 3.521 3.628 3.723 4.903-.47.37-4.137.145-5.733 0-.177-.501-.177-1.185-.118-1.597.591-2.302-2.066-2.393-3.309-3.514-.267-6.74-.354-13.769-.296-20.746-.856-.025-1.446.772-1.919 1.389-2.364 5.202-5.114 10.02-5.144 16.105-.029-.028-.19.586-.219.555-.722 2.781-.212 4.173.289 6.299.119 1.123.641 2.334.376 2.779-1.596.029-3.252-.502-4.787-1.062-.827-.355-.807-1.293-.622-2.127l.741-.74c.471-.293.796-1.007.943-1.388.356-1.835-1.328-2.868-1.802-4.374 2.601-6.678 4.196-14.096 5.761-20.832.118-.059.088-.238.088-.321-.235-.296 0 0 .119-.207-.768-3.223 3.664-3.132 4.047-5.852.651-2.924 2.483-5.349 3.28-8.216-.147-2.097-.768-4.665-1.686-6.591-1.299-4.163-2.717-8.861-1.832-13.382-.117-3.041 1.36-5.554 2.041-8.095-.267.206-.71.031-.975.206-2.364.858-3.782 3.133-4.344 5.438-.681 7.624.975 15.984 3.073 23.193 1.063 1.895-1.389.977-1.596 2.127-1.508 2.306.561 5.644-2.542 7.329-1.387 1.832-.207 4.699-2.245 6.264-1.033 1.563-.59 3.456-1.151 5.111-1.773 1.183-2.335 3.191-2.987 4.994-.62 1.89-2.6 3.312-4.253 4.784-.533.77-.858 1.653-1.595 2.366-1.33 1.005-2.632 2.567-4.374 2.867-1.707-.15-.377-1.743.213-2.129z"/></symbol><symbol id="feline" viewBox="0 0 150 150"><path fill="#A7A9AB" d="M143.705 43.036c.431.234.866.47 1.294.701.002.025-.002.046-.004.07-.501-.195-1.006-.39-1.509-.586-.025.045-.046.088-.079.131-.048.4-.101.802-.152 1.205.215.172.424.346.636.519-.285-.135-.567-.266-.849-.397-.025.042-.053.083-.077.126-.215.581-.264.84-.031 1.349-.486-.253-.353-.281-.808.008-.088.15-.161.305-.242.455.073.253.144.507.219.758-.209-.182-.191-.267-.516-.374.09.319.178.643.266.965-.062-.051-.128-.099-.196-.15-.069-.229-.14-.46-.213-.689-.09-.008-.18-.014-.27-.021-1.659 1.132-4.079 1.247-5.96 2.123-2.264 1.055-5.997 4.617-7.387 6.681-.326.484-.635 1.409-.683 1.905-.309.584-.628 1.17-.939 1.753-.747 1.978-1.12 3.989-1.799 6.012-.085.647-.182 1.293-.273 1.94-.916 2.498-1.465 4.962-2.251 7.596-.082 1.433-.165 2.869-.249 4.305-.191 1.236-.465 2.821-.388 4.29.112 2.192-.567 4.397-.492 6.646.024.727-.276 1.739-.443 2.337-.188.676.09 1.267.007 1.756-.645 3.807-1.112 7.16-.599 10.824.189 1.358.993 2.538 1.279 3.673.722 2.87 1.481 5.262 2.379 8.007 1.421 3.639 2.84 7.28 4.259 10.915.845 2.92 1.624 6.45 3.199 8.745.745 1.097 1.373-.116 2.355.042 2.546.414 5.351 1.708 4.069 4.349-1.118 2.321-4.315 2.285-7.197 1.496-.841-.231-1.656-.212-2.249-.64-2.102-1.512-2.606-5.404-4.631-6.757-.27.159-.567.401-.962.198-.626-.43-1.771-4.893-2.465-5.921-1.292-1.91-2.133-4.139-3.324-6.19-1.836-3.158-4.182-6.56-5.461-10.125-1.017-2.85-2.613-4.921-4.124-7.258-.534-.836-.628-1.877-1.364-2.536-.315.045-.639.091-.952.135-.235 1.045-1.533 1.96-2.104 2.814-.593.907-.973 2.313-1.392 3.339-.912 2.217-1.261 4.088-2.001 6.064-.585 1.555-1.553 3.528-2.149 5.308-.767 2.692-1.523 5.383-2.287 8.075-1.178 3.245-2.97 7.394-2.002 11.527.754.144 1.34-.015 2.098-.047.799.587 3.082 2.121 3.354 3.02.468 1.521-.925 2.166-1.555 2.721-1.496 1.326-6.261 2.158-8.535.449-.499-.373-.914-1.192-1.365-1.652.134-.604.271-1.198.401-1.796-.086-1.312-.737-2.397-.956-3.515.069-1.163.129-2.335.198-3.498-.703-.026-.854-.159-1.039-.619.409-1.603 1.039-3.917 1.557-5.555.057-1.033.11-2.064.167-3.093.224-.952.455-1.901.683-2.851.448-1.879-.036-3.304.461-5.302.384-1.573 1.112-5.863.975-7.698-.194-2.59 1.056-4.849.574-6.839.21-.626.513-1.499.173-2.352-.106-.053-.217-.107-.328-.159.198-.745-.191-1.681-.353-2.459-.041-.183.578-1.816.497-2.188-.349-.829-1.738-.565-2.432-.992-.021-.258-.041-.326-.162-.483-.382.061-.774.122-1.16.186-.15-.045-.242-.344-.591-.247-.167.146-.336.289-.503.434-.023.007-1.481-.2-1.672-.255-.518-.164-1.037-.71-1.705-.671-.305.158-.607.319-.912.476-.442-.104-.887-.202-1.329-.302-.53.163-1.056.325-1.588.489-.192-.127-.388-.257-.578-.38-.134-.039-3.152-.319-3.223-.306-1.352.299-3.385.891-4.747 1.202-.546.124-.668-.319-.915-.404-.049-.022-1.889-.111-2.019-.086-.217.043-1.235.262-1.515.43-.265.159-.351.678-.671.83-.479.05-.954.107-1.43.158-.39.168-1.024.605-1.403.709-.249.005-.496.009-.741.012-.726.484-.366 1.713-.92 2.365-.403.284-.807.568-1.212.856-.455.657-.405 1.496-1.084 1.875-.418.174-.834.344-1.254.511-.909.971-1.106 2.633-2.02 3.568-.383.396-1.088 1.283-1.594 1.503-.715.241-1.433.479-2.147.721-1.248.726-2.525 1.868-3.828 2.481-.367.064-.732.129-1.094.193-.929.463-1.622 1.633-2.524 2.106-2.1 1.105-3.774 2.643-5.755 3.899-.987.619-1.528 1.632-2.342 2.454-.336.339-.91.46-1.212.858-.789 1.038-.7 2.038-1.944 2.557-.085.872-.174 1.743-.262 2.612 2.719 2.36 5.043 5.235 7.809 7.602 1.187-.093 2.639-.652 3.909-.791 2.044-.228 3.664 1.651 4.757 2.312-.706 1.104.25 3.192-1.242 4.022-1.136.142-2.272.285-3.408.425-1.839.229-4.823.387-6.447-.476-.441-.415-.881-.829-1.325-1.249-.757-.412-1.515-.832-2.27-1.245-.44-.438-.881-.875-1.321-1.312-.024 0-.047-.004-.068-.008 1.33 1.81 2.658 3.616 3.986 5.431.683 1.366.285 3.18.334 4.612-1.151-.271-2.955 2.445-5.008 1.046-.537-.364-.714-1.044-1.173-1.435-.333-.095-.663-.187-.993-.279-1.236-.936-1.508-3.272-2.364-4.561-2.529-3.802-4.538-8.041-6.728-12.182-1.224-2.002-2.448-4.005-3.671-6.009-.506-.945-2.781-7.461-2.342-8.549.525-1.295 1.61-1.388 2.777-1.952 2.396-1.163 6.793-3.149 7.65-5.715.432-.061 1.051-.642 1.221-.99-.201-.188-.131-.006-.049-.269.187-.077.373-.156.559-.232-.028-.223-.055-.451-.084-.682.382-.306.764-.619 1.148-.926-.054-.187-.108-.371-.16-.553.163-.102.328-.204.492-.301-.014-.118-.027-.229-.041-.34-.419-.123-.838-.247-1.255-.365 0-.508-.172-.617-.336-.97.21-.262.34-.397.712-.486-.015-.094-.031-.187-.046-.279-.883-.144-1.668-.72-2.063-1.296.061-.232.111-.227-.039-.411-.264-.083-.528-.17-.791-.255-.239-.743-.753-.974-1.1-1.568-.122-.462-.246-.917-.369-1.378-1.154-1.835-3.2-3.547-3.608-6.007-.763-4.601.503-9.542-.085-13.445-.039-.263-1.609-2.205-1.81-2.904.043-.285.088-.577.129-.866l-.95-1.76c.212-.223.291-.166.382-.577-.522-1.388-2.26-2.489-2.473-3.968-.069-.456.168-.92.164-1.335-.039-1.997-1.332-4.203-2.201-5.837-1.276-2.392-2.395-4.575-3.372-7.338-.304-.852-.93-1.84-.933-2.908.137.011.267.021.402.031.001-.021.004-.045.006-.066-.723-2.195-1.532-4.484-1.92-6.895-.236-1.458.424-2.54.081-3.843-.206-.775-1.06-4.203-.228-5.146.114.007.227.015.337.025.001-.022.003-.047.003-.066-.214-1.458-.473-3.782-.072-5.41.215-.141.429-.283.642-.425-.065-1.116-.384-3.496-.074-4.463.244-.767 1.378-1.183 1.495-1.98.36-1.339.374-3.775 1.418-4.554.231.057.197.037.408-.04.676-1.208 1.351-2.42 2.027-3.629.45-.327.902-.654 1.352-.981.413-.688.824-1.378 1.234-2.071.455-.572 1.242-.931 1.917-1.273 1.011-.515 1.69-1.75 2.737-2.296.66-.345 1.332-.171 2.062-.457.539-.296 1.08-.595 1.617-.892 1.025-.329 3.976-.723 4.839-.588 2.627.414 4.324-1.619 6.659.358-.014.18-.027.358-.039.537-.899.611-1.415 1.534-2.511 1.977-2.562 1.032-5.522 1.019-7.926 2.18-2.597 1.255-5.059 3.526-6.714 5.85-8.355 11.735-3.014 32.823 1.913 42.545 1.646 3.25 3.519 6.676 7.018 8.288 1.951.896 4.208-.045 5.5-.406 2.794-.781 5.586-1.709 8.224-2.565 1.325-.284 2.653-.57 3.979-.852 5.427-1.855 11.66-2.945 17.842-3.881 2.31-.165 4.619-.33 6.925-.499 1.034.054 2.063.108 3.095.163 2.091-.059 5.147-.401 7.352.14 1.213.313 2.427.63 3.646.943 1.726.488 3.59-.135 5.015-.301 2.406-.289 7.16.618 8.821 1.26 1.584.61 4.341 1.796 6.729 1.238 2.744-.641 4.596-6.597 5.574-9.645.587-1.848 1.173-3.697 1.757-5.542 1.029-2.283 2.436-4.142 3.139-6.791 1.244-4.702.96-10.451 3.471-13.99 2.815-.563 2.99 3.928 3.763 5.68.283-.1.688-.234 1.016-.059 1.079.634.503 1.946 1.209 2.857.494.248 1.118.183 1.669.259 1.062.147 2.446.645 3.74.547 1.399-.11 3.701-.272 5.254.186 2.087.616 3.814 1.917 5.681 2.65 1.373.538 3.093.616 4.143 1.454 1.239.984.375 1.303.603 2.746.073.42.261 1.277.062 1.962-.101.321-.351.628-.204.865z"/></symbol><symbol id="canine" viewBox="0 0 150 150"><path fill="#A7A9AB" d="M110.762 5.295c-.599-1.27-1.643 1.85-1.867 3.735-.226 1.884 0 8.964 0 8.964s-4.547 4.548-7.471 7.843c-2.922 3.296-12.971 18.077-16.807 22.411-3.837 4.333-31.749 6.349-31.749 6.349l-23.529 1.868-12.554 1.097s-2.218 2.992-.648 3.537c1.573.546 2.472.743 3.864 1.342 1.391.599-5.977 6.557-5.977 14.036 0 7.479.351 12.382 0 15.845-.352 3.463-6.871 9.734-8.217 11.205-1.348 1.472 0 21.289 0 21.289s-1.457 5.501 0 6.35c1.455.85 2.716 2.615 4.482 2.615 1.765 0 5.081.146 6.723 0 1.64-.147.373-2.988.373-2.988l-6.328-7.493s-.56-7.234.353-8.567c.912-1.334 3.339-3.712 4.855-7.097 1.516-3.385 1.097 9.484 1.495 11.951.395 2.468-.398 5.252 4.107 5.977 4.504.725 8.727-.384 8.218-1.12-.51-.736-.895-3.837-3.362-4.856-2.469-1.018-4.132-8.814-3.361-12.324.77-3.51 4.104-4.767 5.977-6.35 1.871-1.583 5.33-2.965 9.711-8.218 4.379-5.252 4.208-7.321 6.349-9.711 2.14-2.389 8.216 0 8.216 0l16.062 5.977s1.91.686 9.711 2.987c-.523 4.659 1.868 13.447 1.868 13.447l1.12 18.301-.373 2.988s-1.145.893-.747 1.867c.397.974 2.614.746 2.614.746l.374 7.845 2.987 5.976 4.856 1.868s4.458.271 5.976-1.494.701-2.716-1.867-4.856c-2.569-2.141-3.137-1.721-4.482-3.734-1.346-2.015-1.494-5.604-1.494-5.604v-5.228s-1.002-6.203 0-3.362c1.003 2.84 2.241 6.35 2.241 6.35s.724-1.97.374 1.867c-.351 3.837 1.471 4.629 5.602 4.482 4.133-.146 3.463-.974 5.604-2.614 1.144-3.384-3.214-5.127-3.214-5.127s-1.665-.827-3.136-2.717-.374-5.705-.374-12.326c0-6.62 1.02-18.075 1.02-18.075s7.028-12.011 7.346-17.398c.317-5.39-.297-8.825.226-14.202.521-5.377 9.812-16.392 10.832-16.434 1.019-.042 13.795-.35 18.301-.747 4.506-.397 7.096-5.229 7.096-5.229s.234-1.2.896-1.767 2.192-1.322 1.719-2.715-6.35-4.108-6.35-4.108-4.256-.474-7.096-1.868-2.637-4.186-6.724-6.35-7.819-3.759-7.819-3.759-1.418-8.044-1.892-9.313-1.868 1.121-1.868 1.121-1.645-3.216-2.242-4.485z"/></symbol><symbol id="F" viewBox="0 0 150 150"><path fill="#A7A9AB" d="M101.01 114.373c.789.473 28.186 9.891 38.625 13.555 10.438 3.662 10.365 4.41 10.365 4.41v9.529H0v-9.529s-.073-.748 10.366-4.41c10.439-3.664 37.835-13.082 38.624-13.555l.014-2.219s-8.798.408-14.459-2.184-8.106-4.992-9.305-9.316-1.339-6.695-1.339-6.695 5.205 1.713 9.152 2.008 5.871-1.328 7.098-2.283-.179-7.092-.179-7.092-3.398-9.131-4.688-15.177c-1.289-6.047-1.678-14.593-.446-20.313 2.279-10.586 5.577-17.408 10.713-27.678S66.309 8.132 70.775 8.132h9.599l2.009 3.238s1.336-1.114 4.91-.893 7.947 4.505 11.387 8.257 15.06 17.832 14.729 37.949c.002 12.498-1.785 16.071-1.785 16.071s-2.935 6.31-3.125 8.037-.902 6.375-.224 10.938 10.26 7.977 12.277 6.473c0 0 .657.885.446 3.57s-3.635 5.355-6.25 6.92c-6.897 3.795-13.616 3.125-13.616 3.125l-.122 2.556z"/></symbol><symbol id="M" viewBox="0 0 150 150"><path fill="#A7A9AB" d="M0 141.867v-9.529s-.073-.748 10.366-4.41c10.439-3.664 37.835-13.082 38.624-13.555.789-.475-1.052-8.17-1.052-8.17s-2.013-4.504-2.294-6.57c-.282-2.064-1.103-8.084-1.103-8.084s-4.314-.904-5.145-3.674S36.09 76.85 36.09 76.85s-1.118-5.85-1.837-8.452c-.72-2.602 1.837-4.41 1.837-4.41l-1.837-19.476s-.447-9.843 1.837-12.126 5.512-5.512 5.512-5.512-.082-2.318.735-4.41 11.216-9.119 16.09-11.161 8.452-3.171 16.583-3.171 11.57 1.114 16.564 3.171c4.992 2.057 13.719 8.143 16.09 11.161s4.867 7.042 6.246 9.921c2.285 2.284 1.838 12.126 1.838 12.126l-1.838 19.476s2.559 1.808 1.838 4.41c-.719 2.602-1.838 8.452-1.838 8.452s-2.477 8.256-3.307 11.025-5.145 3.674-5.145 3.674-.82 6.02-1.102 8.084c-.283 2.066-2.295 6.57-2.295 6.57s-1.84 7.695-1.053 8.17c.789.473 28.186 9.891 38.625 13.555 10.438 3.662 10.365 4.41 10.365 4.41v9.529H0z"/></symbol></svg>