<?xml version="1.0" encoding="utf-8"?>
<!DOCTYPE svg PUBLIC "-//W3C//DTD SVG 1.1//EN" "http://www.w3.org/Graphics/SVG/1.1/DTD/svg11.dtd">
<svg version="1.1" id="Layer_1" xmlns="http://www.w3.org/2000/svg" xmlns:xlink="http://www.w3.org/1999/xlink" x="0px" y="0px"
	 width="337.762px" height="339.86px" viewBox="0 0 337.762 339.86" enable-background="new 0 0 337.762 339.86"
	 xml:space="preserve">
<rect x="14.552" y="16.091" fill="#004B92" width="311.321" height="311.353"/>
<polyline fill="#E1033C" points="207.5,169.833 325.874,16.091 308.451,16.091 189.635,169.833 207.5,169.833 "/>
<path fill="#FFFFFF" d="M145.257,275.14l8.54-11.735c-0.849-0.866-5.597-15.49-5.597-15.49l-8.296,10.778L145.257,275.14
	 M98.415,202.67c-3.34,7.167-22.974,31.089-22.974,31.089h31.071c0,0-6.003-18.578-7.041-22.748c-0.894-3.358-0.65-7.583-0.65-8.16
	L98.415,202.67 M217.899,202.67c-3.331,7.167-23.001,31.089-23.001,31.089h31.135c0,0-6.075-18.578-7.087-22.748
	c-0.803-3.358-0.596-7.583-0.596-8.16L217.899,202.67 M252.483,238.472c5.371,15.201,16.627,54.705,21.068,57.846h-29.355
	c0,0-0.091-5.795-1.418-10.363c-1.309-4.495-11.825-38.654-11.825-38.654h-46.68l-7.33,10.382c0,0,8.792,27.569,9.353,28.905
	c0.938,2.438,5.154,9.73,5.154,9.73h-28.102c0,0-0.75-4.17-1.011-5.939c-0.252-1.426-2.708-9.172-2.708-9.172
	s-6.391,6.969-8.098,10.201c-1.76,3.25-2.527,4.91-2.527,4.91h-22.008c0,0-0.75-4.17-1.038-5.939
	c-0.217-1.426-2.879-9.804-2.879-9.804s-6.193,7.475-7.953,10.706c-1.715,3.25-2.456,5.037-2.456,5.037H90.895
	c0,0,6.148-5.85,8.242-8.395c3.638-4.207,17.17-21.883,17.17-21.883l-5.417-18.74H64.644c0,0-26.387,34.683-27.442,35.748
	c-1.074,1.029-8.766,12.097-8.901,13.27H14.552v-8.702l0.542-0.56c0.442-0.289,20.013-24.59,37.987-48.584
	c16.158-20.854,31.36-41.2,32.669-43.15c3.214-4.658,7.863-14.791,7.863-14.791h23.958c0,0,0.74,9.32,1.417,11.523
	c0.641,2.04,15.202,49.866,15.518,50.39l8.043-10.363l-13.758-42.355c0,0-3.223-7.967-4.288-9.194h27.967
	c0,0-0.199,4.104,0.92,7.588c1.137,3.502,7.131,25.096,7.131,25.096s19.029-23.851,20.186-25.602
	c2.058-2.871,2.347-7.082,2.347-7.082h23.281c0,0-4.233,3.128-11.727,12.57c-2.51,3.142-27.091,34.43-27.091,34.43
	s2.112,7.294,3.15,10.941c0.289,1.047,0.506,1.77,0.506,1.842c0,0.035,0.523-0.633,1.48-1.842
	c6.292-7.998,35.206-45.84,36.993-49.108c1.372-2.618,3.448-5.633,4.649-8.833h22.722c0,0,0.541,6.757,1.228,8.652L252.483,238.472z
	"/>
<g>
</g>
<g>
</g>
<g>
</g>
<g>
</g>
<g>
</g>
<g>
</g>
</svg>
