<svg xmlns="http://www.w3.org/2000/svg" viewBox="0 0 337.762 339.86"><path d="M14.552 16.09h311.32v311.354H14.553z"/><path fill="#FFF" d="M207.5 169.833 325.874 16.09H308.45L189.636 169.834H207.5M145.257 275.14l8.54-11.735c-.85-.866-5.597-15.49-5.597-15.49l-8.296 10.778 5.353 16.447m-46.842-72.47c-3.34 7.167-22.974 31.09-22.974 31.09h31.072s-6.003-18.58-7.04-22.75c-.895-3.357-.65-7.582-.65-8.16l-.407-.18m119.484 0c-3.332 7.167-23.002 31.09-23.002 31.09h31.135s-6.075-18.58-7.087-22.75c-.803-3.357-.596-7.582-.596-8.16l-.45-.18m34.583 35.802c5.37 15.2 16.627 54.705 21.068 57.846h-29.354s-.09-5.795-1.418-10.363c-1.31-4.495-11.825-38.654-11.825-38.654h-46.68l-7.33 10.383s8.792 27.57 9.353 28.905c.938 2.438 5.154 9.73 5.154 9.73h-28.102s-.75-4.17-1.01-5.94c-.253-1.425-2.71-9.17-2.71-9.17s-6.39 6.968-8.097 10.2c-1.76 3.25-2.526 4.91-2.526 4.91h-22.008s-.75-4.17-1.038-5.94c-.217-1.425-2.88-9.803-2.88-9.803s-6.192 7.475-7.952 10.706c-1.715 3.25-2.456 5.038-2.456 5.038H90.895s6.148-5.85 8.242-8.395c3.638-4.207 17.17-21.883 17.17-21.883l-5.417-18.74H64.644s-26.387 34.683-27.442 35.748c-1.074 1.03-8.766 12.097-8.9 13.27H14.55v-8.702l.542-.56c.442-.29 20.013-24.59 37.987-48.584 16.16-20.854 31.36-41.2 32.67-43.15 3.214-4.658 7.863-14.79 7.863-14.79h23.958s.74 9.32 1.418 11.522c.64 2.04 15.202 49.866 15.518 50.39l8.043-10.363-13.76-42.354s-3.222-7.967-4.287-9.194h27.967s-.2 4.104.92 7.588c1.137 3.502 7.13 25.096 7.13 25.096s19.03-23.85 20.187-25.602c2.058-2.87 2.347-7.082 2.347-7.082h23.28s-4.232 3.128-11.726 12.57c-2.51 3.142-27.09 34.43-27.09 34.43s2.11 7.294 3.15 10.94c.288 1.048.505 1.77.505 1.843 0 .035.523-.633 1.48-1.842 6.292-7.998 35.206-45.84 36.993-49.108 1.372-2.618 3.448-5.633 4.65-8.833h22.72s.542 6.757 1.23 8.652l14.237 49.288z"/></svg>