<svg xmlns="http://www.w3.org/2000/svg" viewBox="0 0 76.2 117.8"><linearGradient id="a" gradientUnits="userSpaceOnUse" x1="-209.483" y1="467.823" x2="-208.483" y2="467.823" gradientTransform="matrix(0 -128.6513 -128.6513 0 60218.902 -26811.48)"><stop offset="0" stop-color="#fff"/><stop offset=".147" stop-color="#ffe100"/><stop offset=".242" stop-color="#ffe100"/><stop offset=".324" stop-color="#ffe100"/><stop offset=".621" stop-color="#de1119"/><stop offset="1" stop-color="#e20e18"/></linearGradient><path d="M28.1 41.7c-11.5 13.5-16.3 27.4-17 35.2-1.4 25.1 17.3 34.6 24.4 39.6-5.4-4.1-9.1-19.5-2.7-34.5 6.5-14.8 19.6-23.6 21.7-43 2-19.3-10.2-39-10.2-39 2.8 22.7-4.7 28.1-16.2 41.7" fill="url(#a)"/><linearGradient id="b" gradientUnits="userSpaceOnUse" x1="-210.143" y1="467.642" x2="-209.143" y2="467.642" gradientTransform="matrix(0 -97.5932 -97.5932 0 45655 -20388.664)"><stop offset="0" stop-color="#fff"/><stop offset=".147" stop-color="#ffe100"/><stop offset=".242" stop-color="#ffe100"/><stop offset=".324" stop-color="#ffe100"/><stop offset=".621" stop-color="#de1119"/><stop offset="1" stop-color="#e20e18"/></linearGradient><path d="M14.5 46C3.8 55.5-.6 67.9.1 76c.7 18.5 18.1 30.7 18.1 30.7-7.9-9.5-12.9-23.9-10.4-38 2.5-14 17.8-30.3 24.9-38.6-2.6 2.8-6 5-18.2 15.9" fill="url(#b)"/><linearGradient id="c" gradientUnits="userSpaceOnUse" x1="-209.389" y1="467.848" x2="-208.389" y2="467.848" gradientTransform="matrix(0 -134.7511 -134.7511 0 63098.082 -28076.625)"><stop offset="0" stop-color="#fff"/><stop offset=".147" stop-color="#ffe100"/><stop offset=".242" stop-color="#ffe100"/><stop offset=".324" stop-color="#ffe100"/><stop offset=".621" stop-color="#de1119"/><stop offset="1" stop-color="#e20e18"/></linearGradient><path d="M53.4 57.9c-4.5 10.4-14 21.7-16.7 26.9-7.9 17.2 2.9 33 2.9 33 29.8-1.4 35.5-24.6 36.6-37C73.9 86.9 68.1 92.5 64 95c12.9-22.4 1.6-51.3-5.4-61 .2 7.2-.7 13.6-5.2 23.9" fill="url(#c)"/><linearGradient id="d" gradientUnits="userSpaceOnUse" x1="-211.859" y1="467.173" x2="-210.859" y2="467.173" gradientTransform="matrix(0 -59.9783 -59.9783 0 28068.623 -12592.147)"><stop offset="0" stop-color="#fffced"/><stop offset=".01" stop-color="#fffced"/><stop offset=".753" stop-color="#ffe300"/><stop offset=".906" stop-color="#ffe300"/><stop offset="1" stop-color="#ec7503"/></linearGradient><path d="M41.6 90.7c-7.8 12.3-.9 24.6-.9 24.6 11.5-2 15.8-8.1 18.1-12.9-3.4 2.3-5.9 3.6-9.9 4.3 9.7-12.7 10.2-27.6 9.5-38.9-3.9 10.9-10.4 13-16.8 22.9" fill="url(#d)"/><linearGradient id="e" gradientUnits="userSpaceOnUse" x1="-209.426" y1="467.838" x2="-208.426" y2="467.838" gradientTransform="scale(132.257) rotate(-90 129.73 -338.36)"><stop offset="0" stop-color="#fff"/><stop offset=".147" stop-color="#ffe300"/><stop offset=".242" stop-color="#ffe300"/><stop offset=".324" stop-color="#ffe300"/><stop offset=".621" stop-color="#de1119"/><stop offset="1" stop-color="#e20e18"/></linearGradient><path d="M23.6 64.5c-13.8 22.8 5.8 45 5.8 45-6.3-12-4.1-28.9 5.6-41.5 14.8-19.2 13-27.7 13-44.9C45.3 47 33.1 48 23.6 64.5" fill="url(#e)"/><linearGradient id="f" gradientUnits="userSpaceOnUse" x1="-210.342" y1="467.588" x2="-209.342" y2="467.588" gradientTransform="matrix(0 -90.9706 -90.9706 0 42573.168 -19027.394)"><stop offset="0" stop-color="#fffced"/><stop offset=".01" stop-color="#fffced"/><stop offset=".692" stop-color="#ffe300"/><stop offset=".949" stop-color="#f49800"/><stop offset="1" stop-color="#f49800"/></linearGradient><path d="M23.2 62.3c-11 21.6-1.1 40 9 50.5-25.1-30.2-1.4-55 10.5-71.7 16.5-23 11-39 11-39 3.7 27.8-20.6 40.5-30.5 60.2" fill="url(#f)"/></svg>