<?xml version="1.0" encoding="utf-8"?>
<!DOCTYPE svg PUBLIC "-//W3C//DTD SVG 1.1//EN" "http://www.w3.org/Graphics/SVG/1.1/DTD/svg11.dtd">
<svg version="1.1" id="Logo" xmlns="http://www.w3.org/2000/svg" xmlns:xlink="http://www.w3.org/1999/xlink" x="0px" y="0px" width="326px" height="130px" viewBox="0 0 326 130" enable-background="new 0 0 326 130" xml:space="preserve">
<g>
    <g>
        <path d="M36.086,72.031c-0.201-4.368-0.452-9.639-0.401-14.207h-0.151c-1.104,4.116-2.51,8.685-4.016,12.952l-4.97,14.659h-4.719l-4.518-14.458c-1.305-4.317-2.51-8.936-3.414-13.153h-0.101c-0.15,4.417-0.351,9.789-0.602,14.408l-0.753,13.604H6.668L8.927,52h8.133l4.418,13.605c1.205,3.966,2.259,7.982,3.112,11.747h0.15c0.904-3.665,2.059-7.832,3.364-11.797L32.773,52h8.032l1.958,33.836h-6.024L36.086,72.031z"/>
        <path d="M67.961,79.962c0,2.209,0.1,4.368,0.401,5.874H62.79l-0.452-2.711h-0.151c-1.456,1.908-4.016,3.263-7.229,3.263c-4.919,0-7.681-3.564-7.681-7.279c0-6.125,5.472-9.287,14.508-9.237V69.47c0-1.606-0.653-4.267-4.97-4.267c-2.41,0-4.919,0.753-6.576,1.807l-1.205-4.016c1.808-1.104,4.97-2.159,8.835-2.159c7.832,0,10.091,4.97,10.091,10.342V79.962zM61.937,73.888c-4.367-0.05-8.534,0.853-8.534,4.568c0,2.41,1.556,3.514,3.514,3.514c2.51,0,4.267-1.606,4.87-3.363c0.15-0.452,0.15-0.904,0.15-1.355V73.888z"/>
        <path d="M74.234,80.113c1.355,0.854,4.016,1.808,6.225,1.808c2.711,0,3.916-1.155,3.916-2.761c0-1.657-1.004-2.46-4.016-3.564c-4.769-1.606-6.727-4.217-6.727-7.128c0-4.317,3.564-7.631,9.237-7.631c2.711,0,5.07,0.653,6.526,1.456l-1.255,4.317c-1.004-0.603-3.012-1.406-5.171-1.406c-2.209,0-3.414,1.104-3.414,2.61c0,1.557,1.154,2.259,4.267,3.414c4.468,1.556,6.476,3.815,6.526,7.43c0,4.468-3.464,7.681-9.939,7.681c-2.962,0-5.623-0.703-7.43-1.707L74.234,80.113z"/>
        <path d="M102.495,55.113v6.275h5.874v4.619h-5.874V76.8c0,3.012,0.803,4.518,3.163,4.518c1.104,0,1.707-0.05,2.41-0.251l0.101,4.668c-0.904,0.352-2.56,0.653-4.468,0.653c-2.31,0-4.167-0.753-5.321-2.008c-1.355-1.405-1.958-3.665-1.958-6.877V66.006h-3.464v-4.619h3.464v-4.568L102.495,55.113z"/>
        <path d="M117.102,75.344c0.151,4.418,3.564,6.326,7.53,6.326c2.861,0,4.87-0.452,6.777-1.104l0.903,4.217c-2.108,0.904-5.02,1.556-8.534,1.556c-7.932,0-12.601-4.87-12.601-12.35c0-6.777,4.117-13.153,11.948-13.153c7.932,0,10.542,6.526,10.542,11.898c0,1.155-0.1,2.058-0.201,2.61H117.102z M127.845,71.026c0.05-2.259-0.954-5.974-5.07-5.974c-3.815,0-5.422,3.464-5.673,5.974H127.845z"/>
        <path d="M138.636,69.27c0-3.313-0.05-5.723-0.201-7.882h5.321l0.251,4.619h0.15c1.205-3.414,4.066-5.171,6.727-5.171c0.603,0,0.954,0.05,1.456,0.151v5.773c-0.552-0.1-1.104-0.15-1.857-0.15c-2.912,0-4.97,1.857-5.522,4.668c-0.101,0.552-0.15,1.205-0.15,1.857v12.701h-6.175V69.27z"/>
        <path fill="#676767" d="M156.757,52h6.175v28.665h13.906v5.171h-20.081V52z"/>
        <path fill="#676767" d="M200.229,79.962c0,2.209,0.1,4.368,0.401,5.874h-5.572l-0.452-2.711h-0.151c-1.456,1.908-4.016,3.263-7.229,3.263c-4.919,0-7.681-3.564-7.681-7.279c0-6.125,5.472-9.287,14.508-9.237V69.47c0-1.606-0.653-4.267-4.97-4.267c-2.41,0-4.919,0.753-6.576,1.807l-1.205-4.016c1.808-1.104,4.97-2.159,8.835-2.159c7.832,0,10.091,4.97,10.091,10.342V79.962z M194.205,73.888c-4.367-0.05-8.534,0.853-8.534,4.568c0,2.41,1.556,3.514,3.514,3.514c2.51,0,4.267-1.606,4.87-3.363c0.15-0.452,0.15-0.904,0.15-1.355V73.888z"/>
        <path fill="#676767" d="M206.753,50.193h6.175v14.559h0.1c1.506-2.359,4.167-3.916,7.832-3.916c5.974,0,10.241,4.97,10.191,12.4c0,8.785-5.572,13.153-11.095,13.153c-3.163,0-5.974-1.205-7.731-4.217h-0.1l-0.301,3.665h-5.271c0.101-1.657,0.201-4.368,0.201-6.877V50.193z M212.928,75.746c0,0.502,0.05,1.004,0.15,1.456c0.653,2.51,2.811,4.317,5.472,4.317c3.865,0,6.225-3.062,6.225-8.032c0-4.317-2.058-7.832-6.175-7.832c-2.51,0-4.819,1.808-5.472,4.518c-0.101,0.452-0.201,1.004-0.201,1.606V75.746z"/>
    </g>
    <g>
        <path fill="#676767" d="M55.621,95.455h1.717v11.729h5.621v1.425h-7.338V95.455z"/>
        <path fill="#676767" d="M71.431,106.345c0,0.819,0.039,1.62,0.137,2.264h-1.542l-0.136-1.19h-0.059c-0.527,0.742-1.542,1.405-2.889,1.405c-1.913,0-2.888-1.347-2.888-2.713c0-2.283,2.03-3.532,5.679-3.513v-0.195c0-0.761-0.215-2.186-2.147-2.167c-0.897,0-1.815,0.254-2.479,0.703l-0.39-1.151c0.781-0.488,1.932-0.82,3.123-0.82c2.888,0,3.591,1.971,3.591,3.845V106.345z M69.772,103.788c-1.874-0.039-4.001,0.292-4.001,2.127c0,1.132,0.742,1.64,1.601,1.64c1.249,0,2.049-0.781,2.322-1.581c0.059-0.195,0.078-0.39,0.078-0.546V103.788z"/>
        <path fill="#676767" d="M74.205,94.752h1.698v5.933h0.039c0.605-1.054,1.698-1.718,3.22-1.718c2.361,0,4,1.952,4,4.801c0,3.376-2.146,5.055-4.254,5.055c-1.366,0-2.459-0.527-3.181-1.757h-0.039l-0.097,1.542h-1.464c0.039-0.644,0.078-1.6,0.078-2.439V94.752z M75.902,104.822c0,0.215,0.02,0.429,0.078,0.625c0.312,1.19,1.327,2.01,2.576,2.01c1.815,0,2.869-1.464,2.869-3.63c0-1.893-0.976-3.513-2.83-3.513c-1.151,0-2.245,0.82-2.596,2.108c-0.059,0.215-0.098,0.449-0.098,0.722V104.822z"/>
        <path fill="#676767" d="M93.859,103.808c0,3.493-2.439,5.016-4.703,5.016c-2.537,0-4.528-1.874-4.528-4.86c0-3.142,2.088-4.996,4.684-4.996C92.025,98.967,93.859,100.938,93.859,103.808z M86.385,103.905c0,2.068,1.171,3.63,2.849,3.63c1.64,0,2.869-1.542,2.869-3.669c0-1.601-0.8-3.611-2.83-3.611C87.263,100.255,86.385,102.129,86.385,103.905z"/>
        <path fill="#676767" d="M96.029,102.109c0-1.112-0.02-2.068-0.078-2.947h1.502l0.078,1.874h0.059c0.43-1.269,1.483-2.069,2.635-2.069c0.176,0,0.312,0.02,0.468,0.039v1.62c-0.175-0.039-0.351-0.039-0.585-0.039c-1.21,0-2.069,0.897-2.303,2.186c-0.039,0.234-0.059,0.527-0.059,0.8v5.035h-1.717V102.109z"/>
        <path fill="#676767" d="M108.95,106.345c0,0.819,0.039,1.62,0.137,2.264h-1.542l-0.136-1.19h-0.059c-0.527,0.742-1.542,1.405-2.889,1.405c-1.913,0-2.888-1.347-2.888-2.713c0-2.283,2.03-3.532,5.679-3.513v-0.195c0-0.761-0.215-2.186-2.147-2.167c-0.897,0-1.815,0.254-2.479,0.703l-0.39-1.151c0.781-0.488,1.932-0.82,3.123-0.82c2.888,0,3.591,1.971,3.591,3.845V106.345z M107.291,103.788c-1.874-0.039-4.001,0.292-4.001,2.127c0,1.132,0.742,1.64,1.601,1.64c1.249,0,2.049-0.781,2.322-1.581c0.059-0.195,0.078-0.39,0.078-0.546V103.788z"/>
        <path fill="#676767" d="M113.714,96.899v2.264h2.459v1.308h-2.459v5.094c0,1.171,0.332,1.834,1.288,1.834c0.469,0,0.742-0.039,0.996-0.117l0.078,1.308c-0.332,0.117-0.859,0.234-1.522,0.234c-0.8,0-1.444-0.273-1.854-0.722c-0.468-0.527-0.664-1.366-0.664-2.479v-5.152h-1.464v-1.308h1.464v-1.756L113.714,96.899z"/>
        <path fill="#676767" d="M126.538,103.808c0,3.493-2.439,5.016-4.703,5.016c-2.537,0-4.528-1.874-4.528-4.86c0-3.142,2.088-4.996,4.684-4.996C124.703,98.967,126.538,100.938,126.538,103.808z M119.063,103.905c0,2.068,1.171,3.63,2.849,3.63c1.64,0,2.869-1.542,2.869-3.669c0-1.601-0.8-3.611-2.83-3.611C119.941,100.255,119.063,102.129,119.063,103.905z"/>
        <path fill="#676767" d="M128.707,102.109c0-1.112-0.02-2.068-0.078-2.947h1.502l0.078,1.874h0.059c0.43-1.269,1.483-2.069,2.635-2.069c0.176,0,0.312,0.02,0.468,0.039v1.62c-0.175-0.039-0.351-0.039-0.585-0.039c-1.21,0-2.068,0.897-2.303,2.186c-0.039,0.234-0.059,0.527-0.059,0.8v5.035h-1.717V102.109z"/>
        <path fill="#676767" d="M137.081,96.508c0,0.585-0.41,1.054-1.093,1.054c-0.625,0-1.034-0.469-1.034-1.054s0.429-1.073,1.073-1.073C136.651,95.435,137.081,95.903,137.081,96.508z M135.168,108.608v-9.446h1.717v9.446H135.168z"/>
        <path fill="#676767" d="M148.284,103.808c0,3.493-2.439,5.016-4.703,5.016c-2.537,0-4.528-1.874-4.528-4.86c0-3.142,2.088-4.996,4.684-4.996C146.45,98.967,148.284,100.938,148.284,103.808z M140.81,103.905c0,2.068,1.171,3.63,2.849,3.63c1.64,0,2.869-1.542,2.869-3.669c0-1.601-0.8-3.611-2.83-3.611C141.688,100.255,140.81,102.129,140.81,103.905z"/>
        <path fill="#676767" d="M163.822,108.199c-0.605,0.312-1.874,0.625-3.474,0.625c-3.708,0-6.479-2.342-6.479-6.675c0-4.137,2.791-6.909,6.87-6.909c1.62,0,2.674,0.352,3.123,0.585l-0.429,1.386c-0.625-0.312-1.542-0.546-2.635-0.546c-3.083,0-5.133,1.971-5.133,5.425c0,3.24,1.854,5.289,5.035,5.289c1.054,0,2.108-0.215,2.791-0.546L163.822,108.199z"/>
        <path fill="#676767" d="M165.914,94.752h1.717v13.856h-1.717V94.752z"/>
        <path fill="#676767" d="M174.014,95.084l-2.381,2.791h-1.21l1.717-2.791H174.014z M170.521,108.608v-9.446h1.717v9.446H170.521z"/>
        <path fill="#676767" d="M175.088,101.719c0-0.995-0.02-1.776-0.078-2.557h1.522l0.098,1.562h0.039c0.468-0.878,1.562-1.757,3.123-1.757c1.308,0,3.337,0.781,3.337,4.021v5.621h-1.717v-5.445c0-1.522-0.566-2.791-2.186-2.791c-1.112,0-1.991,0.8-2.303,1.756c-0.078,0.215-0.117,0.508-0.117,0.8v5.679h-1.717V101.719z"/>
        <path fill="#676767" d="M187.835,96.508c0,0.585-0.41,1.054-1.093,1.054c-0.625,0-1.034-0.469-1.034-1.054s0.429-1.073,1.073-1.073C187.405,95.435,187.835,95.903,187.835,96.508z M185.922,108.608v-9.446h1.717v9.446H185.922z"/>
        <path fill="#676767" d="M197.223,108.277c-0.449,0.214-1.444,0.546-2.713,0.546c-2.849,0-4.703-1.932-4.703-4.821c0-2.908,1.991-5.035,5.074-5.035c1.015,0,1.913,0.254,2.381,0.508l-0.391,1.308c-0.41-0.215-1.054-0.449-1.99-0.449c-2.167,0-3.337,1.62-3.337,3.572c0,2.186,1.405,3.532,3.279,3.532c0.976,0,1.62-0.234,2.107-0.449L197.223,108.277z"/>
        <path fill="#676767" d="M207.667,103.808c0,3.493-2.439,5.016-4.703,5.016c-2.537,0-4.528-1.874-4.528-4.86c0-3.142,2.088-4.996,4.684-4.996C205.832,98.967,207.667,100.938,207.667,103.808z M200.192,103.905c0,2.068,1.171,3.63,2.849,3.63c1.64,0,2.869-1.542,2.869-3.669c0-1.601-0.8-3.611-2.83-3.611C201.07,100.255,200.192,102.129,200.192,103.905z"/>
        <path fill="#676767" d="M220.824,102.441h-5.094v4.742h5.699v1.425h-7.416V95.455h7.123v1.425h-5.406v4.157h5.094V102.441z"/>
        <path fill="#676767" d="M223.344,106.872c0.527,0.312,1.425,0.664,2.283,0.664c1.229,0,1.815-0.605,1.815-1.405c0-0.82-0.488-1.249-1.737-1.717c-1.717-0.625-2.518-1.542-2.518-2.674c0-1.522,1.249-2.771,3.259-2.771c0.957,0,1.795,0.254,2.303,0.585l-0.41,1.249c-0.371-0.234-1.054-0.566-1.932-0.566c-1.015,0-1.561,0.585-1.561,1.288c0,0.781,0.546,1.132,1.776,1.62c1.62,0.605,2.479,1.424,2.479,2.83c0,1.679-1.308,2.85-3.513,2.85c-1.035,0-1.991-0.273-2.654-0.664L223.344,106.872z"/>
        <path fill="#676767" d="M231.309,102.246c0-1.21-0.039-2.186-0.078-3.083h1.522l0.098,1.62h0.039c0.683-1.152,1.815-1.815,3.356-1.815c2.304,0,4.021,1.932,4.021,4.782c0,3.396-2.088,5.074-4.312,5.074c-1.249,0-2.342-0.546-2.908-1.483h-0.039v5.133h-1.698V102.246z M233.006,104.764c0,0.254,0.02,0.488,0.078,0.703c0.312,1.19,1.347,2.01,2.576,2.01c1.814,0,2.869-1.483,2.869-3.649c0-1.874-0.996-3.494-2.811-3.494c-1.171,0-2.284,0.82-2.596,2.108c-0.059,0.215-0.117,0.468-0.117,0.683V104.764z"/>
        <path fill="#676767" d="M243.372,104.198c0.039,2.322,1.503,3.279,3.24,3.279c1.229,0,1.99-0.215,2.614-0.488l0.312,1.229c-0.604,0.273-1.659,0.605-3.161,0.605c-2.908,0-4.646-1.932-4.646-4.782c0-2.849,1.679-5.074,4.431-5.074c3.103,0,3.903,2.693,3.903,4.43c0,0.352-0.02,0.605-0.059,0.8H243.372z M248.407,102.968c0.02-1.073-0.449-2.771-2.381-2.771c-1.757,0-2.498,1.581-2.635,2.771H248.407z"/>
        <path fill="#676767" d="M258.928,108.277c-0.448,0.214-1.443,0.546-2.712,0.546c-2.85,0-4.704-1.932-4.704-4.821c0-2.908,1.991-5.035,5.074-5.035c1.016,0,1.913,0.254,2.381,0.508l-0.39,1.308c-0.41-0.215-1.054-0.449-1.991-0.449c-2.166,0-3.337,1.62-3.337,3.572c0,2.186,1.405,3.532,3.278,3.532c0.977,0,1.62-0.234,2.108-0.449L258.928,108.277z"/>
        <path fill="#676767" d="M262.853,96.508c0,0.585-0.409,1.054-1.093,1.054c-0.624,0-1.034-0.469-1.034-1.054s0.43-1.073,1.073-1.073C262.424,95.435,262.853,95.903,262.853,96.508z M260.941,108.608v-9.446h1.717v9.446H260.941z"/>
        <path fill="#676767" d="M272.145,106.345c0,0.819,0.039,1.62,0.136,2.264h-1.541l-0.137-1.19h-0.059c-0.527,0.742-1.542,1.405-2.889,1.405c-1.912,0-2.889-1.347-2.889-2.713c0-2.283,2.03-3.532,5.68-3.513v-0.195c0-0.761-0.215-2.186-2.146-2.167c-0.898,0-1.815,0.254-2.479,0.703l-0.391-1.151c0.78-0.488,1.932-0.82,3.122-0.82c2.889,0,3.592,1.971,3.592,3.845V106.345z M270.486,103.788c-1.874-0.039-4.001,0.292-4.001,2.127c0,1.132,0.741,1.64,1.601,1.64c1.249,0,2.049-0.781,2.322-1.581c0.059-0.195,0.078-0.39,0.078-0.546V103.788z"/>
        <path fill="#676767" d="M274.917,94.752h1.717v13.856h-1.717V94.752z"/>
        <path fill="#676767" d="M281.437,96.508c0,0.585-0.409,1.054-1.093,1.054c-0.624,0-1.034-0.469-1.034-1.054s0.43-1.073,1.073-1.073C281.008,95.435,281.437,95.903,281.437,96.508z M279.525,108.608v-9.446h1.717v9.446H279.525z"/>
        <path fill="#676767" d="M283.019,107.613l4.254-5.562c0.43-0.527,0.82-0.976,1.249-1.483v-0.039h-5.113v-1.366h7.183v1.073l-4.216,5.484c-0.41,0.527-0.78,1.015-1.21,1.483v0.039h5.504v1.366h-7.65V107.613z"/>
        <path fill="#676767" d="M299.083,106.345c0,0.819,0.039,1.62,0.136,2.264h-1.541l-0.137-1.19h-0.059c-0.527,0.742-1.542,1.405-2.889,1.405c-1.912,0-2.889-1.347-2.889-2.713c0-2.283,2.03-3.532,5.68-3.513v-0.195c0-0.761-0.215-2.186-2.146-2.167c-0.898,0-1.815,0.254-2.479,0.703l-0.391-1.151c0.78-0.488,1.932-0.82,3.122-0.82c2.889,0,3.592,1.971,3.592,3.845V106.345z M297.424,103.788c-1.874-0.039-4.001,0.292-4.001,2.127c0,1.132,0.741,1.64,1.601,1.64c1.249,0,2.049-0.781,2.322-1.581c0.059-0.195,0.078-0.39,0.078-0.546V103.788z"/>
        <path fill="#676767" d="M309.995,94.752v11.417c0,0.839,0.039,1.795,0.078,2.439h-1.521l-0.078-1.639h-0.059c-0.508,1.054-1.64,1.854-3.182,1.854c-2.283,0-4.06-1.932-4.06-4.801c-0.02-3.142,1.952-5.055,4.235-5.055c1.464,0,2.42,0.683,2.85,1.425h0.039v-5.64H309.995z M308.297,103.007c0-0.215-0.02-0.507-0.078-0.722c-0.254-1.073-1.19-1.971-2.479-1.971c-1.776,0-2.83,1.562-2.83,3.63c0,1.913,0.956,3.494,2.791,3.494c1.151,0,2.205-0.781,2.518-2.049c0.059-0.234,0.078-0.468,0.078-0.742V103.007z"/>
        <path fill="#676767" d="M321.415,103.808c0,3.493-2.439,5.016-4.703,5.016c-2.537,0-4.528-1.874-4.528-4.86c0-3.142,2.089-4.996,4.685-4.996C319.58,98.967,321.415,100.938,321.415,103.808z M313.94,103.905c0,2.068,1.171,3.63,2.85,3.63c1.639,0,2.868-1.542,2.868-3.669c0-1.601-0.8-3.611-2.829-3.611C314.818,100.255,313.94,102.129,313.94,103.905z"/>
    </g>
    <path fill-rule="evenodd" clip-rule="evenodd" fill="#676767" d="M235.878,55.521c1.405,1.909,4.317,3.714,8.334,5.624c0,0,2.511-1.204,4.72-2.41c2.209-1.304,4.316-2.31,4.316-2.31c-3.213-1.506-11.346-3.815-12.852-8.432C240.296,47.892,235.878,52.007,235.878,55.521L235.878,55.521z"/>
    <path fill-rule="evenodd" clip-rule="evenodd" fill="#993399" d="M269.514,14.561c0,3.614-2.511,5.923-5.12,8.333c-3.816,3.715-14.86,8.734-19.681,11.345c-6.424,3.414-8.936,8.233-8.936,9.739V55.12c0.101,0.803,0.504,0.4,0.706-0.202c1.002-2.811,4.216-8.432,16.463-14.155c5.321-2.51,19.076-8.634,19.076-17.269C272.023,19.479,271.32,16.97,269.514,14.561L269.514,14.561z"/>
    <path fill-rule="evenodd" clip-rule="evenodd" fill="#993399" d="M269.514,42.471c0,3.514-2.511,6.023-5.12,8.332c-3.816,3.715-14.86,8.735-19.681,11.346c-6.424,3.513-8.936,8.23-8.936,9.636V83.13c0.101,0.703,0.504,0.302,0.706-0.202c1.002-2.911,4.216-8.532,16.463-14.254c5.321-2.511,19.076-8.734,19.076-17.168C272.023,47.39,271.32,44.88,269.514,42.471L269.514,42.471z"/>
</g>
</svg>
